<svg id="Calque_1" data-name="Calque 1" xmlns="http://www.w3.org/2000/svg" viewBox="0 0 500 240.54"><defs><style>.cls-1{fill:#69bb8a;}.cls-1,.cls-2,.cls-3,.cls-4{opacity:0.5;}.cls-2{fill:#33b5cc;}.cls-3{fill:#65c0bc;}.cls-4{fill:#7cbb4f;}.cls-5{font-size:155.37px;fill:#3e3e3e;font-family:Nunito-ExtraBold, Nunito;font-weight:800;}.cls-6{font-size:94.68px;}</style></defs><title>koleg-3</title><path class="cls-1" d="M169.32,67.44a14.26,14.26,0,1,1-28.52,0,21.07,21.07,0,0,0-42.13,0A14.26,14.26,0,1,1,84.41,53.18h0a21.06,21.06,0,0,0,21.07-21.06,14.26,14.26,0,0,1,28.52,0,21.06,21.06,0,0,0,21.06,21.06A14.26,14.26,0,0,1,169.32,67.44Z"/><path class="cls-2" d="M84.07,52.89a14.26,14.26,0,1,1,0,28.52,21.07,21.07,0,0,0,0,42.13,14.26,14.26,0,1,1-14.26,14.27h0a21.06,21.06,0,0,0-21.06-21.06,14.26,14.26,0,0,1,0-28.52A21.06,21.06,0,0,0,69.81,67.15,14.27,14.27,0,0,1,84.07,52.89Z"/><path class="cls-3" d="M84.07,123.51a14.26,14.26,0,1,1,0,28.52,21.07,21.07,0,0,0,0,42.13,14.26,14.26,0,1,1-14.26,14.26h0a21.06,21.06,0,0,0-21.06-21.07,14.26,14.26,0,0,1,0-28.52,21.06,21.06,0,0,0,21.06-21.06A14.26,14.26,0,0,1,84.07,123.51Z"/><path class="cls-4" d="M169.32,208.42a14.26,14.26,0,1,1-28.52,0,21.07,21.07,0,1,0-42.13,0,14.26,14.26,0,1,1-14.26-14.26h0a21.07,21.07,0,0,0,21.07-21.07,14.26,14.26,0,0,1,28.52,0,21.06,21.06,0,0,0,21.06,21.07A14.25,14.25,0,0,1,169.32,208.42Z"/><text class="cls-5" transform="translate(169.71 179.81)">K<tspan class="cls-6" x="105.34" y="0">oleg</tspan></text></svg>